REM DIRINDEX 1\2,1\3,1\4,1\5
REM DIRNAME folder01,folder02,folder03,folder04,folder05
TITLE ""
FILE "P1Q_t_1292-1301.mp3" MP3
  TRACK 01 AUDIO
    TITLE "3:cjc005_4783"
    INDEX 01 00:00:00
  TRACK 02 AUDIO
    TITLE "0:"
    INDEX 01 00:01:11
  TRACK 03 AUDIO
    TITLE "4:cjc005_4784"
    INDEX 01 00:01:40
  TRACK 04 AUDIO
    TITLE "0:"
    INDEX 01 00:02:63
  TRACK 05 AUDIO
    TITLE "5:cjc005_4785"
    INDEX 01 00:03:12
  TRACK 06 AUDIO
    TITLE "0:"
    INDEX 01 00:06:41
  TRACK 07 AUDIO
    TITLE "3:cjc005_4786"
    INDEX 01 00:07:13
  TRACK 08 AUDIO
    TITLE "0:"
    INDEX 01 00:08:26
  TRACK 09 AUDIO
    TITLE "4:cjc005_4787"
    INDEX 01 00:08:56
  TRACK 10 AUDIO
    TITLE "0:"
    INDEX 01 00:10:18
  TRACK 11 AUDIO
    TITLE "5:cjc005_4788"
    INDEX 01 00:10:41
  TRACK 12 AUDIO
    TITLE "0:"
    INDEX 01 00:14:68
  TRACK 13 AUDIO
    TITLE "3:cjc005_4789"
    INDEX 01 00:15:50
  TRACK 14 AUDIO
    TITLE "0:"
    INDEX 01 00:16:59
  TRACK 15 AUDIO
    TITLE "4:cjc005_4790"
    INDEX 01 00:17:10
  TRACK 16 AUDIO
    TITLE "0:"
    INDEX 01 00:18:21
  TRACK 17 AUDIO
    TITLE "5:cjc005_4791"
    INDEX 01 00:18:44
  TRACK 18 AUDIO
    TITLE "0:"
    INDEX 01 00:23:53
  TRACK 19 AUDIO
    TITLE "3:cjc005_4792"
    INDEX 01 00:24:37
  TRACK 20 AUDIO
    TITLE "0:"
    INDEX 01 00:25:62
  TRACK 21 AUDIO
    TITLE "4:cjc005_4793"
    INDEX 01 00:26:13
  TRACK 22 AUDIO
    TITLE "0:"
    INDEX 01 00:27:20
  TRACK 23 AUDIO
    TITLE "5:cjc005_4794"
    INDEX 01 00:27:43
  TRACK 24 AUDIO
    TITLE "0:"
    INDEX 01 00:30:69
  TRACK 25 AUDIO
    TITLE "3:cjc005_4795"
    INDEX 01 00:31:39
  TRACK 26 AUDIO
    TITLE "0:"
    INDEX 01 00:32:47
  TRACK 27 AUDIO
    TITLE "4:cjc005_4796"
    INDEX 01 00:32:74
  TRACK 28 AUDIO
    TITLE "0:"
    INDEX 01 00:34:20
  TRACK 29 AUDIO
    TITLE "5:cjc005_4797"
    INDEX 01 00:34:43
  TRACK 30 AUDIO
    TITLE "0:"
    INDEX 01 00:38:30
  TRACK 31 AUDIO
    TITLE "3:cjc005_4798"
    INDEX 01 00:39:03
  TRACK 32 AUDIO
    TITLE "0:"
    INDEX 01 00:40:23
  TRACK 33 AUDIO
    TITLE "4:cjc005_4799"
    INDEX 01 00:40:50
  TRACK 34 AUDIO
    TITLE "0:"
    INDEX 01 00:41:53
  TRACK 35 AUDIO
    TITLE "5:cjc005_4800"
    INDEX 01 00:41:73
  TRACK 36 AUDIO
    TITLE "0:"
    INDEX 01 00:47:23
  TRACK 37 AUDIO
    TITLE "3:cjc005_4801"
    INDEX 01 00:47:74
  TRACK 38 AUDIO
    TITLE "0:"
    INDEX 01 00:49:33
  TRACK 39 AUDIO
    TITLE "4:cjc005_4802"
    INDEX 01 00:49:55
  TRACK 40 AUDIO
    TITLE "0:"
    INDEX 01 00:50:66
  TRACK 41 AUDIO
    TITLE "5:cjc005_4803"
    INDEX 01 00:51:15
  TRACK 42 AUDIO
    TITLE "0:"
    INDEX 01 00:55:32
  TRACK 43 AUDIO
    TITLE "3:cjc005_4804"
    INDEX 01 00:56:10
  TRACK 44 AUDIO
    TITLE "0:"
    INDEX 01 00:57:21
  TRACK 45 AUDIO
    TITLE "4:cjc005_4805"
    INDEX 01 00:57:45
  TRACK 46 AUDIO
    TITLE "0:"
    INDEX 01 00:58:44
  TRACK 47 AUDIO
    TITLE "5:cjc005_4806"
    INDEX 01 00:58:64
  TRACK 48 AUDIO
    TITLE "0:"
    INDEX 01 01:02:69
  TRACK 49 AUDIO
    TITLE "3:cjc005_4807"
    INDEX 01 01:03:45
  TRACK 50 AUDIO
    TITLE "0:"
    INDEX 01 01:04:48
  TRACK 51 AUDIO
    TITLE "4:cjc005_4808"
    INDEX 01 01:04:72
  TRACK 52 AUDIO
    TITLE "0:"
    INDEX 01 01:05:71
  TRACK 53 AUDIO
    TITLE "5:cjc005_4809"
    INDEX 01 01:06:18
  TRACK 54 AUDIO
    TITLE "0:"
    INDEX 01 01:10:08
  TRACK 55 AUDIO
    TITLE "3:cjc005_4810"
    INDEX 01 01:10:63
  TRACK 56 AUDIO
    TITLE "0:"
    INDEX 01 01:12:03
  TRACK 57 AUDIO
    TITLE "4:cjc005_4811"
    INDEX 01 01:12:32
  TRACK 58 AUDIO
    TITLE "0:"
    INDEX 01 01:13:36
  TRACK 59 AUDIO
    TITLE "5:cjc005_4812"
    INDEX 01 01:13:59
  TRACK 60 AUDIO
    TITLE "0:"
    INDEX 01 01:17:57
